<?xml version="1.0" encoding="UTF-8" standalone="no"?>
<svg
   height="1000"
   width="1000">
  <g
     transform="translate(172,-330)"
     id="layer1">
    <g
       style="stroke-width:2.64139056"
       transform="matrix(0.37858848,0,0,0.37858848,-108.06807,260.21727)"
       id="g3760">
      <g
         style="stroke-width:2.64139056; transform: scale(60%)"
         id="g3744">
        <path
           id="rect3636"
           d="m -247.80404,310.65753 h 73.56999 c 14.43656,0 26.05878,11.62222 26.05878,26.05878 v 73.56956 c 0,14.43656 -11.62222,26.05878 -26.05878,26.05878 h -73.56999 c -14.43657,0 -26.05878,-11.62222 -26.05878,-26.05878 v -73.56956 c 0,-14.43656 11.62221,-26.05878 26.05878,-26.05878 z"
           style="opacity:1;fill:#fddb32;fill-opacity:1;stroke:none;stroke-width:3.96208596;stroke-linecap:square;stroke-linejoin:round;stroke-miterlimit:4;stroke-dasharray:none;stroke-dashoffset:0;stroke-opacity:0.41588787" />
        <g
           style="stroke-width:2.64139056"
           id="g3738">
          <path
             id="path3707"
             d="m -238.71566,333.15999 c -1.17116,1e-5 -1.90728,0.26915 -2.5275,0.88935 l -12.55942,12.55946 c -0.23324,0.23319 -0.36427,0.54973 -0.36433,0.87953 -7e-5,0.68662 0.55671,1.24332 1.24334,1.24334 l 54.44577,-1e-5 -33.47186,33.47135 c -0.65963,0.65962 -1.04336,1.04333 -1.04334,2.33782 l -1e-5,8.80671 c 1e-5,0.5333 0.24259,0.99549 0.59066,1.34359 0.34808,0.34806 0.80977,0.59015 1.34308,0.59016 l 8.80721,-1e-5 c 1.29451,0 1.6777,-0.38322 2.33731,-1.04284 l 33.47187,-33.47185 v 54.44575 c 1e-5,0.68663 0.55671,1.24342 1.24333,1.24335 0.32979,-4e-5 0.64638,-0.13107 0.87954,-0.36432 l 12.55944,-12.55942 c 0.62018,-0.62022 0.88941,-1.35632 0.88936,-2.52752 l -2e-5,-59.45166 a 8.3930309,8.3930309 0 0 0 -8.39328,-8.39279 z"
             style="opacity:1;fill:#191e3b;fill-opacity:1;stroke:none;stroke-width:0.69996846;stroke-linecap:square;stroke-linejoin:round;stroke-miterlimit:4;stroke-dasharray:none;stroke-dashoffset:0;stroke-opacity:0.41588787" />
          <path
             style="opacity:1;fill:#191e3b;fill-opacity:1;stroke:none;stroke-width:3.96208596;stroke-linecap:square;stroke-linejoin:round;stroke-miterlimit:4;stroke-dasharray:none;stroke-dashoffset:0;stroke-opacity:0.41588787"
             d="m -249.38273,397.72867 h 12.08089 c 1.01056,0 1.82412,0.81355 1.82412,1.82411 v 12.15651 c 0,1.01056 -0.81356,1.82412 -1.82412,1.82412 h -12.08089 c -1.01056,0 -1.82412,-0.81356 -1.82412,-1.82412 v -12.15651 c 0,-1.01056 0.81356,-1.82411 1.82412,-1.82411 z"
             id="rect3709" />
        </g>
      </g>
    </g>
  </g>
</svg>
